<svg width="102" height="101" viewBox="0 0 102 101" fill="none" xmlns="http://www.w3.org/2000/svg">
<path d="M62.5373 51.4271L70.3393 43.8231C71.0893 43.0961 71.3573 42.0261 71.0363 41.0291C70.7153 40.0301 69.8703 39.3131 68.8283 39.1591L58.0353 37.5951L53.2143 27.8141C52.7473 26.8771 51.8093 26.2961 50.7653 26.2961C50.7633 26.2961 50.7603 26.2971 50.7573 26.2971C49.7143 26.2991 48.7793 26.8831 48.3173 27.8201L43.4973 37.5941L32.7073 39.1591C31.6633 39.3141 30.8163 40.0361 30.4973 41.0421C30.1803 42.0401 30.4533 43.1081 31.1983 43.8191L39.0013 51.4251L37.1523 62.2191C36.9783 63.2461 37.3903 64.2691 38.2293 64.8851C38.7093 65.2381 39.2733 65.4171 39.8413 65.4171C40.2613 65.4171 40.6833 65.3181 41.0733 65.1201L50.9933 60.0991L60.4113 65.0491C61.3423 65.5401 62.4473 65.4601 63.2963 64.8441C64.1443 64.2291 64.5613 63.2031 64.3843 62.1691L62.5373 51.4271ZM59.4473 51.1571L61.3353 62.1481L51.7033 57.0861C51.2733 56.8601 50.7613 56.8561 50.3283 57.0751L40.1973 62.2021L42.0893 51.1561C42.1723 50.6701 42.0113 50.1741 41.6573 49.8291L33.6783 42.0501L44.7073 40.4501C45.1963 40.3791 45.6193 40.0721 45.8373 39.6291L50.7663 29.6351L55.6923 39.6291C55.9103 40.0721 56.3333 40.3801 56.8223 40.4501L67.8613 42.0501L59.8793 49.8291C59.5253 50.1741 59.3633 50.6711 59.4473 51.1571Z" fill="#231F20"/>
<path d="M98.2383 57.1343C97.9643 56.2783 97.2413 55.6633 96.3423 55.5283L89.2203 54.4973L86.0353 48.0403C85.6363 47.2373 84.8313 46.7393 83.9353 46.7393C83.9333 46.7393 83.9313 46.7393 83.9293 46.7393C83.0333 46.7413 82.2313 47.2413 81.8363 48.0453L78.6543 54.4973L71.5263 55.5293C70.6353 55.6643 69.9133 56.2813 69.6403 57.1383C69.3693 57.9923 69.6013 58.9083 70.2393 59.5223L75.3903 64.5463L74.1703 71.6673C74.0193 72.5453 74.3683 73.4183 75.0823 73.9473C75.4953 74.2533 75.9813 74.4093 76.4733 74.4093C76.8333 74.4093 77.1953 74.3253 77.5333 74.1563L84.0913 70.8373L90.3043 74.1063C91.1053 74.5293 92.0563 74.4573 92.7853 73.9223C93.5113 73.3903 93.8623 72.5103 93.7043 71.6403L92.4903 64.5463L97.6383 59.5253C98.2823 58.9023 98.5113 57.9853 98.2383 57.1343ZM84.5283 49.3703C84.5283 49.3703 84.5283 49.3713 84.5283 49.3703V49.3703ZM89.8323 62.9483C89.4793 63.2933 89.3183 63.7893 89.4013 64.2753L90.5233 70.8313L84.8033 67.8223C84.3733 67.5943 83.8603 67.5913 83.4283 67.8103L77.3493 70.8873L78.4823 64.2753C78.5653 63.7893 78.4043 63.2933 78.0513 62.9483L73.2903 58.3043L79.8673 57.3513C80.3563 57.2813 80.7793 56.9733 80.9973 56.5303L83.9383 50.5663L86.8793 56.5303C87.0973 56.9733 87.5203 57.2813 88.0093 57.3513L94.5923 58.3043L89.8323 62.9483Z" fill="#231F20"/>
<path d="M29.9991 55.527L22.8771 54.496L19.6921 48.039C19.2931 47.236 18.4881 46.738 17.5921 46.738C17.5901 46.738 17.5881 46.738 17.5861 46.738C16.6901 46.74 15.8871 47.241 15.4921 48.046L12.3111 54.496L5.18312 55.528C4.29112 55.664 3.56712 56.281 3.29412 57.139C3.02312 57.993 3.25512 58.908 3.89212 59.521L9.04412 64.545L7.82712 71.665C7.67512 72.543 8.02512 73.417 8.73912 73.946C9.15112 74.252 9.63812 74.408 10.1301 74.408C10.4891 74.408 10.8521 74.324 11.1891 74.154L17.7451 70.836L23.9611 74.105C24.7601 74.526 25.7081 74.459 26.4361 73.925C27.1631 73.396 27.5171 72.517 27.3621 71.639L26.1481 64.545L31.2951 59.524C31.9371 58.902 32.1671 57.987 31.8941 57.134C31.6201 56.279 30.8981 55.663 29.9991 55.527ZM23.4891 62.948C23.1361 63.293 22.9751 63.789 23.0581 64.275L24.1801 70.831L18.4571 67.821C18.0261 67.595 17.5141 67.59 17.0821 67.811L11.0061 70.886L12.1361 64.275C12.2191 63.789 12.0581 63.293 11.7051 62.948L6.94412 58.304L13.5241 57.351C14.0131 57.281 14.4361 56.973 14.6541 56.53L17.5951 50.566L20.5361 56.53C20.7541 56.973 21.1771 57.281 21.6661 57.351L28.2491 58.304L23.4891 62.948Z" fill="#231F20"/>
</svg>
